<svg xmlns="http://www.w3.org/2000/svg" viewBox="0 0 788 855" width="788" height="855" font-family="-apple-system, BlinkMacSystemFont, Segoe UI, Roboto, Helvetica, Arial, sans-serif">
<!-- Generated by tools/erd. Do not edit by hand; run: go run ./tools/erd -->
<rect width="788" height="855" fill="#f4f3ef"/>
<style>
.ent-box { fill: #ffffff; stroke: #e4e1d8; stroke-width: 1.5; }
.ent-head { fill: #1a2123; }
.ent-head-text { fill: #ffffff; font-size: 12px; font-weight: 700; }
.ent-field { fill: #23272a; font-size: 10.5px; }
.ent-key { fill: #23272a; font-size: 10.5px; font-weight: 700; }
.ent-type { fill: #6b7278; font-size: 9.5px; }
.rel { stroke: #9aa3a8; stroke-width: 1.4; fill: none; }
.rel-many { stroke-dasharray: 4 3; }
.rel-label { fill: #6b7278; font-size: 9px; }
</style>
<path class="rel rel-many" d="M 566.0 535.0 C 529.0 535.0, 529.0 405.5, 492.0 405.5"/>
<path class="rel rel-many" d="M 566.0 264.5 C 529.0 264.5, 529.0 405.5, 492.0 405.5"/>
<path class="rel rel-many" d="M 566.0 95.5 C 529.0 95.5, 529.0 405.5, 492.0 405.5"/>
<path class="rel rel-many" d="M 222.0 242.0 C 259.0 242.0, 259.0 405.5, 296.0 405.5"/>
<path class="rel" d="M 222.0 572.5 C 259.0 572.5, 259.0 405.5, 296.0 405.5"/>
<path class="rel rel-many" d="M 222.0 741.5 C 259.0 741.5, 259.0 405.5, 296.0 405.5"/>
<path class="rel rel-many" d="M 566.0 674.0 C 529.0 674.0, 529.0 405.5, 492.0 405.5"/>
<path class="rel rel-many" d="M 222.0 88.0 C 259.0 88.0, 259.0 405.5, 296.0 405.5"/>
<path class="rel rel-many" d="M 222.0 403.5 C 259.0 403.5, 259.0 405.5, 296.0 405.5"/>
<path class="rel rel-many" d="M 566.0 411.0 C 529.0 411.0, 529.0 405.5, 492.0 405.5"/>
<path class="rel" d="M 26.0 829.0 h 26"/>
<text class="rel-label" x="57.0" y="832.0">one-to-one</text>
<path class="rel rel-many" d="M 126.0 829.0 h 26"/>
<text class="rel-label" x="157.0" y="832.0">many-to-one or many-to-many (see docs/data-model.md for each)</text>
<g><rect class="ent-box" x="26.0" y="26.0" width="196.0" height="124.0" rx="7"/>
<path class="ent-head" d="M 33.0 26.0 h 182.0 a 7 7 0 0 1 7 7 v 19.0 h -196.0 v -19.0 a 7 7 0 0 1 7 -7 z"/>
<text class="ent-head-text" x="36.0" y="43.5">APIKey</text>
<text class="ent-key" x="36.0" y="63.0">ID</text>
<text class="ent-type" x="212.0" y="63.0" text-anchor="end">string</text>
<text class="ent-key" x="36.0" y="78.0">Name</text>
<text class="ent-type" x="212.0" y="78.0" text-anchor="end">string</text>
<text class="ent-key" x="36.0" y="93.0">Group</text>
<text class="ent-type" x="212.0" y="93.0" text-anchor="end">string</text>
<text class="ent-field" x="36.0" y="108.0">Role</text>
<text class="ent-type" x="212.0" y="108.0" text-anchor="end">string</text>
<text class="ent-field" x="36.0" y="123.0">TokenHash</text>
<text class="ent-type" x="212.0" y="123.0" text-anchor="end">string</text>
<text class="ent-field" x="36.0" y="138.0">CreatedAt</text>
<text class="ent-type" x="212.0" y="138.0" text-anchor="end">time.Time</text>
</g>
<g><rect class="ent-box" x="26.0" y="180.0" width="196.0" height="124.0" rx="7"/>
<path class="ent-head" d="M 33.0 180.0 h 182.0 a 7 7 0 0 1 7 7 v 19.0 h -196.0 v -19.0 a 7 7 0 0 1 7 -7 z"/>
<text class="ent-head-text" x="36.0" y="197.5">AuditEntry</text>
<text class="ent-key" x="36.0" y="217.0">ID</text>
<text class="ent-type" x="212.0" y="217.0" text-anchor="end">string</text>
<text class="ent-key" x="36.0" y="232.0">Actor</text>
<text class="ent-type" x="212.0" y="232.0" text-anchor="end">string</text>
<text class="ent-key" x="36.0" y="247.0">Target</text>
<text class="ent-type" x="212.0" y="247.0" text-anchor="end">string</text>
<text class="ent-field" x="36.0" y="262.0">Action</text>
<text class="ent-type" x="212.0" y="262.0" text-anchor="end">string</text>
<text class="ent-field" x="36.0" y="277.0">Detail</text>
<text class="ent-type" x="212.0" y="277.0" text-anchor="end">string</text>
<text class="ent-field" x="36.0" y="292.0">CreatedAt</text>
<text class="ent-type" x="212.0" y="292.0" text-anchor="end">time.Time</text>
</g>
<g><rect class="ent-box" x="26.0" y="334.0" width="196.0" height="139.0" rx="7"/>
<path class="ent-head" d="M 33.0 334.0 h 182.0 a 7 7 0 0 1 7 7 v 19.0 h -196.0 v -19.0 a 7 7 0 0 1 7 -7 z"/>
<text class="ent-head-text" x="36.0" y="351.5">DiscoveredAsset</text>
<text class="ent-key" x="36.0" y="371.0">ID</text>
<text class="ent-type" x="212.0" y="371.0" text-anchor="end">string</text>
<text class="ent-key" x="36.0" y="386.0">Address</text>
<text class="ent-type" x="212.0" y="386.0" text-anchor="end">string</text>
<text class="ent-field" x="36.0" y="401.0">OpenPorts</text>
<text class="ent-type" x="212.0" y="401.0" text-anchor="end">[]int</text>
<text class="ent-field" x="36.0" y="416.0">Banners</text>
<text class="ent-type" x="212.0" y="416.0" text-anchor="end">map[string]string</text>
<text class="ent-field" x="36.0" y="431.0">ScannedBy</text>
<text class="ent-type" x="212.0" y="431.0" text-anchor="end">string</text>
<text class="ent-field" x="36.0" y="446.0">ScannedCIDR</text>
<text class="ent-type" x="212.0" y="446.0" text-anchor="end">string</text>
<text class="ent-field" x="36.0" y="461.0">Known</text>
<text class="ent-type" x="212.0" y="461.0" text-anchor="end">bool</text>
<text class="ent-type" x="36.0" y="476.0">+2 more</text>
</g>
<g><rect class="ent-box" x="26.0" y="503.0" width="196.0" height="139.0" rx="7"/>
<path class="ent-head" d="M 33.0 503.0 h 182.0 a 7 7 0 0 1 7 7 v 19.0 h -196.0 v -19.0 a 7 7 0 0 1 7 -7 z"/>
<text class="ent-head-text" x="36.0" y="520.5">Enrollment</text>
<text class="ent-key" x="36.0" y="540.0">ID</text>
<text class="ent-type" x="212.0" y="540.0" text-anchor="end">string</text>
<text class="ent-key" x="36.0" y="555.0">Host</text>
<text class="ent-type" x="212.0" y="555.0" text-anchor="end">string</text>
<text class="ent-field" x="36.0" y="570.0">Platform</text>
<text class="ent-type" x="212.0" y="570.0" text-anchor="end">string</text>
<text class="ent-field" x="36.0" y="585.0">TokenHash</text>
<text class="ent-type" x="212.0" y="585.0" text-anchor="end">string</text>
<text class="ent-field" x="36.0" y="600.0">Status</text>
<text class="ent-type" x="212.0" y="600.0" text-anchor="end">string</text>
<text class="ent-field" x="36.0" y="615.0">CreatedAt</text>
<text class="ent-type" x="212.0" y="615.0" text-anchor="end">time.Time</text>
<text class="ent-field" x="36.0" y="630.0">EnrolledAt</text>
<text class="ent-type" x="212.0" y="630.0" text-anchor="end">time.Time</text>
</g>
<g><rect class="ent-box" x="26.0" y="672.0" width="196.0" height="139.0" rx="7"/>
<path class="ent-head" d="M 33.0 672.0 h 182.0 a 7 7 0 0 1 7 7 v 19.0 h -196.0 v -19.0 a 7 7 0 0 1 7 -7 z"/>
<text class="ent-head-text" x="36.0" y="689.5">Rule</text>
<text class="ent-key" x="36.0" y="709.0">ID</text>
<text class="ent-type" x="212.0" y="709.0" text-anchor="end">string</text>
<text class="ent-key" x="36.0" y="724.0">Name</text>
<text class="ent-type" x="212.0" y="724.0" text-anchor="end">string</text>
<text class="ent-key" x="36.0" y="739.0">Group</text>
<text class="ent-type" x="212.0" y="739.0" text-anchor="end">string</text>
<text class="ent-key" x="36.0" y="754.0">Kind</text>
<text class="ent-type" x="212.0" y="754.0" text-anchor="end">string</text>
<text class="ent-key" x="36.0" y="769.0">Category</text>
<text class="ent-type" x="212.0" y="769.0" text-anchor="end">string</text>
<text class="ent-field" x="36.0" y="784.0">Threshold</text>
<text class="ent-type" x="212.0" y="784.0" text-anchor="end">int</text>
<text class="ent-field" x="36.0" y="799.0">AutoRemediate</text>
<text class="ent-type" x="212.0" y="799.0" text-anchor="end">string</text>
<text class="ent-type" x="36.0" y="814.0">+3 more</text>
</g>
<g><rect class="ent-box" x="566.0" y="26.0" width="196.0" height="139.0" rx="7"/>
<path class="ent-head" d="M 573.0 26.0 h 182.0 a 7 7 0 0 1 7 7 v 19.0 h -196.0 v -19.0 a 7 7 0 0 1 7 -7 z"/>
<text class="ent-head-text" x="576.0" y="43.5">Action</text>
<text class="ent-key" x="576.0" y="63.0">ID</text>
<text class="ent-type" x="752.0" y="63.0" text-anchor="end">string</text>
<text class="ent-key" x="576.0" y="78.0">Host</text>
<text class="ent-type" x="752.0" y="78.0" text-anchor="end">string</text>
<text class="ent-field" x="576.0" y="93.0">Verb</text>
<text class="ent-type" x="752.0" y="93.0" text-anchor="end">string</text>
<text class="ent-field" x="576.0" y="108.0">Arg</text>
<text class="ent-type" x="752.0" y="108.0" text-anchor="end">string</text>
<text class="ent-field" x="576.0" y="123.0">QueuedAt</text>
<text class="ent-type" x="752.0" y="123.0" text-anchor="end">time.Time</text>
<text class="ent-field" x="576.0" y="138.0">Delivered</text>
<text class="ent-type" x="752.0" y="138.0" text-anchor="end">bool</text>
<text class="ent-field" x="576.0" y="153.0">DeliveredAt</text>
<text class="ent-type" x="752.0" y="153.0" text-anchor="end">time.Time</text>
<text class="ent-type" x="576.0" y="168.0">+3 more</text>
</g>
<g><rect class="ent-box" x="566.0" y="195.0" width="196.0" height="139.0" rx="7"/>
<path class="ent-head" d="M 573.0 195.0 h 182.0 a 7 7 0 0 1 7 7 v 19.0 h -196.0 v -19.0 a 7 7 0 0 1 7 -7 z"/>
<text class="ent-head-text" x="576.0" y="212.5">Change</text>
<text class="ent-key" x="576.0" y="232.0">Host</text>
<text class="ent-type" x="752.0" y="232.0" text-anchor="end">string</text>
<text class="ent-key" x="576.0" y="247.0">Category</text>
<text class="ent-type" x="752.0" y="247.0" text-anchor="end">string</text>
<text class="ent-field" x="576.0" y="262.0">Field</text>
<text class="ent-type" x="752.0" y="262.0" text-anchor="end">string</text>
<text class="ent-field" x="576.0" y="277.0">OldValue</text>
<text class="ent-type" x="752.0" y="277.0" text-anchor="end">string</text>
<text class="ent-field" x="576.0" y="292.0">NewValue</text>
<text class="ent-type" x="752.0" y="292.0" text-anchor="end">string</text>
<text class="ent-field" x="576.0" y="307.0">Action</text>
<text class="ent-type" x="752.0" y="307.0" text-anchor="end">string</text>
<text class="ent-field" x="576.0" y="322.0">ChangedAt</text>
<text class="ent-type" x="752.0" y="322.0" text-anchor="end">time.Time</text>
</g>
<g><rect class="ent-box" x="566.0" y="364.0" width="196.0" height="94.0" rx="7"/>
<path class="ent-head" d="M 573.0 364.0 h 182.0 a 7 7 0 0 1 7 7 v 19.0 h -196.0 v -19.0 a 7 7 0 0 1 7 -7 z"/>
<text class="ent-head-text" x="576.0" y="381.5">Document</text>
<text class="ent-key" x="576.0" y="401.0">Kind</text>
<text class="ent-type" x="752.0" y="401.0" text-anchor="end">string</text>
<text class="ent-key" x="576.0" y="416.0">ID</text>
<text class="ent-type" x="752.0" y="416.0" text-anchor="end">string</text>
<text class="ent-field" x="576.0" y="431.0">Data</text>
<text class="ent-type" x="752.0" y="431.0" text-anchor="end">json.RawMessage</text>
<text class="ent-field" x="576.0" y="446.0">UpdatedAt</text>
<text class="ent-type" x="752.0" y="446.0" text-anchor="end">time.Time</text>
</g>
<g><rect class="ent-box" x="566.0" y="488.0" width="196.0" height="94.0" rx="7"/>
<path class="ent-head" d="M 573.0 488.0 h 182.0 a 7 7 0 0 1 7 7 v 19.0 h -196.0 v -19.0 a 7 7 0 0 1 7 -7 z"/>
<text class="ent-head-text" x="576.0" y="505.5">Fact</text>
<text class="ent-key" x="576.0" y="525.0">Host</text>
<text class="ent-type" x="752.0" y="525.0" text-anchor="end">string</text>
<text class="ent-key" x="576.0" y="540.0">Category</text>
<text class="ent-type" x="752.0" y="540.0" text-anchor="end">string</text>
<text class="ent-field" x="576.0" y="555.0">Data</text>
<text class="ent-type" x="752.0" y="555.0" text-anchor="end">map[string]any</text>
<text class="ent-field" x="576.0" y="570.0">CookedAt</text>
<text class="ent-type" x="752.0" y="570.0" text-anchor="end">time.Time</text>
</g>
<g><rect class="ent-box" x="566.0" y="612.0" width="196.0" height="124.0" rx="7"/>
<path class="ent-head" d="M 573.0 612.0 h 182.0 a 7 7 0 0 1 7 7 v 19.0 h -196.0 v -19.0 a 7 7 0 0 1 7 -7 z"/>
<text class="ent-head-text" x="576.0" y="629.5">SoftwareRule</text>
<text class="ent-key" x="576.0" y="649.0">ID</text>
<text class="ent-type" x="752.0" y="649.0" text-anchor="end">string</text>
<text class="ent-key" x="576.0" y="664.0">Name</text>
<text class="ent-type" x="752.0" y="664.0" text-anchor="end">string</text>
<text class="ent-key" x="576.0" y="679.0">Group</text>
<text class="ent-type" x="752.0" y="679.0" text-anchor="end">string</text>
<text class="ent-key" x="576.0" y="694.0">Kind</text>
<text class="ent-type" x="752.0" y="694.0" text-anchor="end">string</text>
<text class="ent-field" x="576.0" y="709.0">Match</text>
<text class="ent-type" x="752.0" y="709.0" text-anchor="end">string</text>
<text class="ent-field" x="576.0" y="724.0">CreatedAt</text>
<text class="ent-type" x="752.0" y="724.0" text-anchor="end">time.Time</text>
</g>
<g><rect class="ent-box" x="296.0" y="343.5" width="196.0" height="124.0" rx="7"/>
<path class="ent-head" d="M 303.0 343.5 h 182.0 a 7 7 0 0 1 7 7 v 19.0 h -196.0 v -19.0 a 7 7 0 0 1 7 -7 z"/>
<text class="ent-head-text" x="306.0" y="361.0">Host</text>
<text class="ent-key" x="306.0" y="380.5">Name</text>
<text class="ent-type" x="482.0" y="380.5" text-anchor="end">string</text>
<text class="ent-key" x="306.0" y="395.5">Group</text>
<text class="ent-type" x="482.0" y="395.5" text-anchor="end">string</text>
<text class="ent-field" x="306.0" y="410.5">Platform</text>
<text class="ent-type" x="482.0" y="410.5" text-anchor="end">string</text>
<text class="ent-field" x="306.0" y="425.5">FirstSeen</text>
<text class="ent-type" x="482.0" y="425.5" text-anchor="end">time.Time</text>
<text class="ent-field" x="306.0" y="440.5">LastCooked</text>
<text class="ent-type" x="482.0" y="440.5" text-anchor="end">time.Time</text>
<text class="ent-field" x="306.0" y="455.5">Tags</text>
<text class="ent-type" x="482.0" y="455.5" text-anchor="end">[]string</text>
</g>
</svg>
